<svg width="16" height="14" viewBox="0 0 16 14" fill="none" xmlns="http://www.w3.org/2000/svg">
<path d="M8.13295 8.9375C8.77245 8.9375 9.39384 9.10554 9.94135 9.42597L10.1632 9.55579C10.3314 9.65422 10.3609 9.88457 10.2231 10.0221L8.32897 11.9109C8.21263 12.0269 8.02401 12.0269 7.90767 11.9109L6.02576 10.0342C5.88847 9.89731 5.91709 9.66813 6.08385 9.56898L6.3032 9.43856C6.85574 9.11003 7.48501 8.9375 8.13295 8.9375Z" fill="black"/>
<path d="M8.13267 5.46875C9.7235 5.46875 11.2509 5.99649 12.4952 6.97382L12.6711 7.11194C12.8113 7.22205 12.8236 7.42955 12.6974 7.55539L11.5666 8.68302C11.462 8.78732 11.2965 8.7993 11.1779 8.71116L11.0401 8.60871C10.1997 7.98413 9.18633 7.6491 8.13267 7.6491C7.07251 7.6491 6.05323 7.9883 5.21005 8.62005L5.07207 8.72343C4.95346 8.8123 4.78737 8.8006 4.68247 8.69599L3.5521 7.56877C3.42618 7.44319 3.43813 7.23622 3.57769 7.1259L3.75254 6.98766C4.99979 6.00163 6.53416 5.46875 8.13267 5.46875Z" fill="black"/>
<path d="M8.13272 2C10.6574 2 13.0717 2.89057 14.9828 4.52294L15.1459 4.66228C15.2777 4.77488 15.2855 4.97558 15.1627 5.09797L14.0356 6.22195C13.9264 6.33084 13.7519 6.33847 13.6336 6.23952L13.494 6.12283C11.9894 4.86472 10.1035 4.18035 8.13272 4.18035C6.15517 4.18035 4.26327 4.86943 2.75641 6.13541L2.6168 6.2527C2.4985 6.3521 2.32359 6.34466 2.2142 6.23557L1.08726 5.11176C0.964693 4.98954 0.972236 4.78918 1.10365 4.67646L1.26614 4.53708C3.17953 2.89589 5.60056 2 8.13272 2Z" fill="black"/>
</svg>
